<svg xmlns="http://www.w3.org/2000/svg" viewBox="0 0 655.5 340"><defs><style>.a{fill:none;}.a,.c{stroke:#fff;stroke-miterlimit:10;stroke-width:3px;}.b,.c{fill:#fff;}</style></defs><title>image-vector</title><polyline class="a" points="487.07 99.5 654 99.5 654 338.5 1.5 338.5 1.5 99.5 207.34 99.5"/><path class="b" d="M251,61.24A3.59,3.59,0,0,0,255,63c1.21,3.17,2.09,6.49,3.24,9.69l-.08.1a1,1,0,0,0-.1.21,6.6,6.6,0,0,1-3.93.18,3.55,3.55,0,0,0-6.25-1c-2.13,3.09,1.27,6.46,4.46,5.22a5.75,5.75,0,0,1,1.84.1,9.68,9.68,0,0,0,2.57-.26,8.33,8.33,0,0,0,2.36-.86c-.27.61-.56,1.21-.88,1.78a17.39,17.39,0,0,1-3,3.9c-1.41,1.39-2.63,1.39-4.4,2-3.65,1.31-1.59,7.41,2.13,6.42,4-1.06,6.49-5.64,8.06-9.16a21.75,21.75,0,0,0,1.25-3.51c2.67,3.14,1.73,7.87.37,11.48a17.9,17.9,0,0,1-3.9,6,6.78,6.78,0,0,1-3,2c-1.49.37-.22,1-1.86-.23-2.24-1.76-5.57.11-5.75,2.77-.23,3.45,3.53,4.72,6,3a55.41,55.41,0,0,0,6.17-4.25,20.84,20.84,0,0,0,5.31-8.24c1.94-5,2-11.77-3-14.68a5.31,5.31,0,0,0-.1-1.45c4.88,4.72,10.73,7.86,16.86,10.55a17.51,17.51,0,0,1-1.06,2.43c-1,1.79-2.73,2.34-4.68,2.57-3.2.36-2.19,5.14.95,4.87a10,10,0,0,0,6.14-3.23c-.87,4-2.79,7.37-7.9,8.41-3.41.7-2.23,6.21,1,5.23,7.16-2.14,13.49-10.71,10.33-18.27,3.69,1.51,7.43,3,11.06,4.57,10.8,4.81,21,10.62,31.84,15-3.29.07-6.85.75-8.67.74-4.17,0-4.7,6.33-.44,6.54a26.53,26.53,0,0,0,8.22-1.37c.41-.11.84-.19,1.27-.28-11.13,5.83-23.82,9.42-35.18,14.14l-2.08.87c-1.31-5.18-2.61-9.73-7.73-12.69-3.42-2-14.38-3.25-14.07,3.16.08,1.67,1.7,3.31,3.46,2.34,3.8-2.09,7.27-2.37,11.05.37,1.91,1.39,3.14,3.75,4.33,6a8.52,8.52,0,0,0-2.3-.73c-3.79-.7-7,.27-10.48,1.55a2.42,2.42,0,0,0-1.36,2c0,.14,0,.28,0,.43a2,2,0,0,0,1.82,2.08,2.6,2.6,0,0,0,2.61-1c.92-1.08,2.83-1.62,4.14-2a10.39,10.39,0,0,1,5-.09c-9.48,4.24-19.75,10-24.54,19,0,0,0-.07,0-.1-3.12-4.44-5.78-8.92-9.91-12.57a17.16,17.16,0,0,0-6.32-3.84c-2.34-.73-3.88.46-6.05.57-2.73.12-4.76,3.07-2.75,5.44a3.32,3.32,0,0,0,5.71-1.36c.18.05.63-.11,1.4-.52a6.69,6.69,0,0,1,3.09,1.24,27,27,0,0,1,5.38,4.74,66.13,66.13,0,0,0,6.24,6.07c-3.15-1.07-6.67-.46-10,1a4.5,4.5,0,0,0-2,.4,3.57,3.57,0,0,0-1.16,5.5c1.86,2.2,5,1.25,6.05-1.13a3,3,0,0,0,.14-.39,10.37,10.37,0,0,1,9.18-.67c-.32.56-.62,1.13-1,1.67s-3.55,4.72-3.57,4.71c-2.89-1.38-5.57,2.31-4.34,4.86,1.46,3,6.75,2.36,6.69-1.29,0-.43,1.61-2,1.89-2.42a24.21,24.21,0,0,0,1.88-3.56,18.58,18.58,0,0,0,1.32-3.44,16.06,16.06,0,0,1,2.4,7.08,10.52,10.52,0,0,1-.1,2.31c-.06.58-1,2-.34,1.86a4.07,4.07,0,0,0-3,3.74,2.58,2.58,0,0,0,1.72,2.59,3.51,3.51,0,0,0,3.41-.45,3.37,3.37,0,0,0,1.1-1s1.1-2.29.47-1.26a12.52,12.52,0,0,0-5.4-16.86,4.34,4.34,0,0,0-.12-1,.55.55,0,0,0-.89-.31c-.17.13-.31.29-.46.43a.3.3,0,0,1-.08-.08c6.21-9.2,16.57-14.37,26.93-18.46a27.41,27.41,0,0,1-2,6.17,7.39,7.39,0,0,1-2.59,3c-1.4.85-2.88.29-4.15,1.5a2,2,0,0,0-.22,2.76c2.31,2.15,5.37.84,7.48-1.18a1.7,1.7,0,0,0,1.26,1.21c2.69.59,5-.74,7.76-.7a13,13,0,0,1,5.13,1.38,11.63,11.63,0,0,0-2.23.46c-2.78.91-5.42,2.15-8.1,3.32-1.91.83-4.42,1.72-4,4.36a2.55,2.55,0,0,0,1.69,1.95,3.26,3.26,0,0,0,3.18-.84,1.76,1.76,0,0,0,.37-.4c.44-.35.82-.79,1.31-1.12a40.14,40.14,0,0,1,4.93-2.64,21.16,21.16,0,0,1,4.34-1.74c2.4-.56,5.13,1.14,6.43,3.24l-.24.84-.2,0c-4.48,1.23-10.79,7.4-6.33,12.1a2.39,2.39,0,0,0,3.76-.23A134.23,134.23,0,0,0,304.8,188c-7.24-8-17.25-11.51-27.3-5.09-4.4,2.81-.23,9.09,3.89,6,5.64-4.29,11.07-3.43,16.11-.57-4.42.1-8.81,2.5-13,4.39l-.45,0a3.36,3.36,0,0,0-3.44,3.9c.2,3,3.26,3,4.64,2.33a3.3,3.3,0,0,0,1.8-3.58c1.55-1.71,4.44-2.7,6.43-3.34a15.18,15.18,0,0,1,8.85-.3,3.22,3.22,0,0,1,.28.24,13.17,13.17,0,0,0-1.5,2.56,13.85,13.85,0,0,0-1,3.52,34.39,34.39,0,0,1-.39,3.58c-1.59,5.48,7.75,4.23,5.32-.3-.73-1.36-.21-4,.1-5.39a20.57,20.57,0,0,1,.66-2.25,2.23,2.23,0,0,0,1.37-2.11,40.65,40.65,0,0,1,5.11,2.29c-.42.32-.83.66-1.23,1A13.89,13.89,0,0,0,308,199c-1,2.12-.91,4.56-1.86,6.63-1.09,2.35,1.48,4.81,3.78,4.36s3.68-3.61,1.89-5.42,1.62-6,2.82-7.23a10.1,10.1,0,0,1,.84-.76,3.44,3.44,0,0,1,.46,2.08,3.16,3.16,0,0,0,1.39,2.88h0a25.09,25.09,0,0,0,.07,3.12c-.89,2.41.74,5.3,3.67,4.73,3.2-.63,3.32-4.17,1.33-5.94a11.72,11.72,0,0,1-.53-2.81,2.75,2.75,0,0,0,.52-1.56,8.89,8.89,0,0,0-.34-2,24,24,0,0,1,1.1-4.28,1.65,1.65,0,0,0,.59-.31,45.63,45.63,0,0,1,3.57,5.84c1,2.14,1,5.44,3.67,6.23a2.92,2.92,0,0,0,3.25-1.06c2.15-2.52-.69-5.49-2.35-7.35a29.21,29.21,0,0,0-6-5.3,10,10,0,0,1,5.52.11,6.4,6.4,0,0,1,2.68,1.49l.14.11s0,0,0,0a3.88,3.88,0,0,0,1.67,2.4,3.35,3.35,0,0,0,5-1.63l.12-.28a3.42,3.42,0,0,0-.65-3.45c-2.67-2.59-5.46-3.38-9.19-3.31-3.18.05-6.59,1.15-8.62,3.69l-.65.07v0a165.61,165.61,0,0,1,2.6-32.25,6.28,6.28,0,0,1,1.09-.29c1.58,2.76,2.86,5.67,2.11,8.88a2.39,2.39,0,0,0,4.5,1.58c1.86-3.71-.3-8.2-3.12-11.17a1.2,1.2,0,0,0-.43-1.2,7.82,7.82,0,0,0-1.11-.76c2.65-1.1,5.59,1.79,7.25,3.91a15.51,15.51,0,0,1,2.5,4.74c.47,1.4.19,2.82.77,4.18a2.89,2.89,0,0,0,4.92.39c3.16-4.39-3.32-10.88-6.42-13.32-3.38-2.65-8-4-10.77-.57a5.08,5.08,0,0,0-.65-.15l.24-1.42c1.82-10.07,4.55-23.14,10.8-32.48a43.94,43.94,0,0,0-1.05,4.49c-.49,2.57-2.84,8.69-.57,10.81a2.81,2.81,0,0,0,2.62.92c3.59-1.18,3.36-6.12,3.82-9.3a37.94,37.94,0,0,0,.43-10,.11.11,0,0,0,0,0c.53,1.79.9,3.6,1.29,5.43.79,3.65,1.85,7.21,2.5,10.91.68,3.9,6.38,2.67,6-1.17a29.77,29.77,0,0,0-1.24-5.7,94.34,94.34,0,0,1,6.74,15c1.18,3.62,2.28,7.27,3.41,10.9-2.43-.29-4.86.88-7,2.95-2.93,2.79-6.2,7.92-5.92,12.1a2.82,2.82,0,0,0,2.57,2.28,3,3,0,0,0,.73,0,2.88,2.88,0,0,0,2.28-2.58c.57-3.77,2.53-10.21,6.52-11.62a16.64,16.64,0,0,0-4.05,11.63c.28,3.66,6.77,2.05,5-1.66-1.15-2.39-.34-6,1.21-8.91,2.89,8.93,6.23,17.64,11.7,25.39a11.15,11.15,0,0,0-.8.87c-8.42-.48-16.7,14.4-15.85,21.38a2.75,2.75,0,0,0,2.54,2.24,2.78,2.78,0,0,0,2.69-4c-2.07-5.61,3.73-15.58,10.05-17.56a1.35,1.35,0,0,0,1.2.52c-3.28,2.1-5,6.35-5.91,10.11-.89,3.47-3,14.38,4.07,11.93a2.61,2.61,0,0,0,1.45-2.14,4.3,4.3,0,0,0-.74-3.31c-1.11-1.61-1.17-2.74-1.15-4.83A18.22,18.22,0,0,1,373,188c-1,5.22,1.18,11.15,4.17,15.24,2.54,3.46,7.75-1.5,4.14-4.57-4.33-3.67-5.62-7.92-5-13.48a1.23,1.23,0,0,0,0-.19l.15-.07,0,0a17.1,17.1,0,0,1,7,4.69c2.19,2.4,2.28,6.24,4.9,8a2.43,2.43,0,0,0,3.37-.61c2.31-4.1-1.86-8.61-5.1-10.95a16.54,16.54,0,0,0-9.07-3,19,19,0,0,1,8-.69c4.39.48,6.1,3.17,9,5.79,2.32,2.07,5.28-.82,5-3.26-.67-5.5-8.24-7.08-12.67-7.42-4.94-.37-10,.91-13.6,4.31-4.93-7.84-7.54-16.91-9.78-26,.65.06,1.23-.83.69-1.33a9.64,9.64,0,0,0-.8-.66c.17-.17.33-.36.5-.51a10.79,10.79,0,0,1,8.16,6.94c1.34,3.25,5.94.86,4.84-2.34-1.59-4.59-8.33-8.18-13.18-6.78,2.52-2.4,6.28-1.83,9.49-.83,2.78.86,5.23,3.43,8.07,3.7a1.9,1.9,0,0,0,2-2.23c-.83-3.4-5.5-4.77-9-5.3a1.46,1.46,0,0,0,.05-.2c.27-1.92-.56-2.92-1.12-4.72-.66-2.08,0-4.3,1-6.16a13.91,13.91,0,0,1,3-3.82,4.88,4.88,0,0,0-.28,1.33c-.23,3.16,1.58,6,3.34,8.46,2.15,3,6.61-.76,4.4-3.74a30.72,30.72,0,0,1-2.85-4.64c-.41-.81-.48-1.81-.89-2.6a.54.54,0,0,1,0-.1,8.66,8.66,0,0,1,.89-.35,152.13,152.13,0,0,1,26.82,29.37c-7.71-.24-14.14,9.06-15.11,16a3,3,0,0,0,1.31,2.72,3.22,3.22,0,0,0,3.07.24,3.1,3.1,0,0,0,1.72-2.55c.77-5.93,3.23-14.2,10.12-14.8a1.3,1.3,0,0,0,.1.15c-.12.72.51,1.1,1.11,1.06-4.27,6.37-5.6,13-2.49,20.43,1.74,4.15,8.35-.36,4.36-3.73-4.24-3.58-2.74-10-.66-14.84l0,0a11.92,11.92,0,0,1,2.56,2.65c.73,1.15,1,2.61,2.19,3.4a2.51,2.51,0,0,0,3.75-1.22c.88-2-.92-4-2.35-5.25a9.23,9.23,0,0,0-4.91-2.26h0a.42.42,0,0,0,0-.15.35.35,0,0,0,.11,0,16.65,16.65,0,0,1,9-2.17c2.26.08,3.89,1.66,6.12,2a1.79,1.79,0,0,0,1.81-1.2c1.71-4.42-3.54-6-6.86-5.78a18.29,18.29,0,0,0-9.56,3.68,25.25,25.25,0,0,1,6.6-5.31,10.79,10.79,0,0,1,5.94-1.59c1.88.12,2.79,1.7,4.87.51a3.1,3.1,0,0,0,1.73-2.56v-.24a3.63,3.63,0,0,0-2.37-3.59c-4.57-1.67-9.6,2-13,4.62-3.25,2.46-6.44,5.92-7.65,9.93-.29-.06-.56-.11-.84-.14-5.91-11.13-14.09-20.93-23.22-29.6.8.12,1.58.28,2.3.45a5.64,5.64,0,0,1,4.5,3.89c.74,1.77,2.94,1.53,4,.31,3.7-4.23-1.81-8.42-5.63-9.2a14,14,0,0,0-8.07.69,7.47,7.47,0,0,1,4.76-3.42,10.65,10.65,0,0,1,4,.06c1.78.29,3.1,1.41,5,1a2.58,2.58,0,0,0,1.81-3.62c-2.11-3.77-8.81-3.63-12.42-2.41a9.78,9.78,0,0,0-6.39,6.74,88.36,88.36,0,0,0-10.44-7.64l.69.05c3.8.28,4.86-5.2,1.32-6.49a71.09,71.09,0,0,0-11.15-3.24,37.4,37.4,0,0,0-5-.73c0-.22,0-.43,0-.64.3-.22.6-.43.91-.63,4.42.48,9.44-.87,13.72-1.37a2.9,2.9,0,0,0,2.46-3.84,121.87,121.87,0,0,1,17.61-.35c4.86.17,9.86.49,14.87,1.06-6.8,4.21.49,18.4,6.63,21.49,3.15,1.58,5.92-3.89,2.82-5.53-3.82-2-10.11-9.34-8.2-14,.64,3.5,4.64,6.75,7.18,8.48,3.14,2.14,6.37-2.58,3.34-4.82-2.37-1.75-4.85-3.16-7.13-5a106.59,106.59,0,0,1,19.68,4.62,1,1,0,0,0,0,.73c.1.3.24.6.37.89,0,0,0,0,0,0-3.07,3.93-2,8,.39,12,1.24,2.09,2.76,4,3.87,6.16.17.36.34.74.49,1.12-.6-1.43-.25.67-.17,1.08a5.62,5.62,0,0,0,2.12,3,2.51,2.51,0,0,0,3.45-.63,4.52,4.52,0,0,0,.89-2.78,3.41,3.41,0,0,0-2.18-3.3c1.18.6.1-.27-.18-.64-.51-.68-1.11-1.29-1.68-1.92-1.06-1.17-2.15-2.32-3.2-3.51-2.29-2.58-3.62-5.3-2.61-8.47a37.3,37.3,0,0,0,5,6.11c2.27,2.35,4.82,6,8.21,6.53,2.25.35,4.24-2.55,3.05-4.51-1.5-2.5-4.82-3.55-7.3-4.94a29.53,29.53,0,0,1-4.92-3.58c2.81-1.68,7.07-.86,9.69.72a3.41,3.41,0,0,0,3.38.26l.33-.2a3,3,0,0,0,1.54-3.09l0-.39a3.29,3.29,0,0,0-2.19-2.53c-4.39-1.36-9.73-1.21-13.26,1.59-.13-3.63,1.86-6,5.66-7,3.07-.81,6.29,1,8.62-1.74a2.33,2.33,0,0,0,.19-2.36c-1.92-4.59-9.8-1.39-12.84.3a9,9,0,0,0-3.84,3.9c-.83-8.66-.46-20.22,7.17-21.56,3.66-.64,3.45-6.38-.22-6.66,0-.06,0-.13,0-.17-.4-2-3.26-3.37-4.84-1.69l-.08.09c-.38.11-.78.25-1.25.38a11.86,11.86,0,0,1-5.46-.2,18.8,18.8,0,0,1-11.32-6.87,18.65,18.65,0,0,0,4.36.61c1.42.06,2.84.05,4.26,0,1.6,0,2.87.74,4.57.6,2.22-.18,4.61-1,5.31-3.42s-1-5.12-3.72-4.35l-.1,0a4.5,4.5,0,0,0-2.32.56,19.66,19.66,0,0,1-1.86.86c-.86.37-1.28,1.39-2.13,1.65a27.77,27.77,0,0,1-7.14,1.18.38.38,0,0,0,0-.1c-.18-.34-.34-.69-.51-1a21.44,21.44,0,0,1,6.13-6,4,4,0,0,0,.85-.11,2.18,2.18,0,0,0,1.44-.19,4.58,4.58,0,0,0,2.47-3.27c.13-.28.18-.39,0,0a3.64,3.64,0,0,0-.79-2.75L426.7,46a2.42,2.42,0,0,0-.65-.58,3.92,3.92,0,0,0-2.89-.58,4.65,4.65,0,0,0-3,2.48,3.64,3.64,0,0,0-.55,2.08c-1.13,2.34-2.62,4.64-3.71,7.06a20.46,20.46,0,0,1-.69-11.1,14.42,14.42,0,0,1,3.39-6.79c.73-.79,4-3.36,3.65-3.57a2.85,2.85,0,0,0,4.25-1.38,4.86,4.86,0,0,0-.07-4.15c-.84-2.09-3.37-2.59-5.25-1.84-5.54,2.22-8.49,11.11-9.8,16.39a18.65,18.65,0,0,0,2.36,15.14,2.08,2.08,0,0,0-.71.12,160.51,160.51,0,0,0-22,10.51l.48-.79a6.93,6.93,0,0,1,2.06-2.57l1.19-.64a3.13,3.13,0,0,0,.3-.2,1.71,1.71,0,0,0,1.56-1.25,2.72,2.72,0,0,0-1.91-3.53c-2.36-.5-3.77,1.25-4.26,3.35-.63,2.68-2,5-2.8,7.59l-.4.24c.19-3.74.55-7.83,2.57-10.8S387,55,385.37,58c-2.52,4.57-2.45,10.62-.84,15.59-2.78,1.71-5.53,3.46-8.19,5.27a124.81,124.81,0,0,0-12,9C367.89,81.25,371.46,74.64,375,68c6-11.24,12.28-23,15.78-35.3,2.79,2.58,6.44,4.26,9.73,6.06,2.94,1.61,6.49,4,9.11.56a2.61,2.61,0,0,0-.16-3.17c-2-2.31-4.42-1.83-7.22-2.31a31.11,31.11,0,0,1-6.38-1.92c3.89-.08,7.34-1.33,9.9-4.61a4.37,4.37,0,0,0,.64-.83c2.31-3.84-3.47-6.82-5.46-2.78-1.33,2.71-4,3.59-6.76,4.2.18-.36.36-.72.53-1.09a31.79,31.79,0,0,1,1.58-3.14c.24-.4.47-.8.7-1.21.7-1.23,1-.86-.72-.33a2.93,2.93,0,0,0,2.25-3.35l-.09-.59a2.54,2.54,0,0,0-4.12-1.44l-.44.4a2.93,2.93,0,0,0-.32,4c-.94-1.37-.52-1.75-.73-.51-.07.45-.14.89-.2,1.34a30.83,30.83,0,0,1-.67,3.42c-.22.85-.41,1.71-.58,2.57a31.26,31.26,0,0,1-4.42-7.3,22.42,22.42,0,0,1-1.34-3.95c-.05-.22-.09-.27-.12-.28a1.21,1.21,0,0,0,.19-.33,3.32,3.32,0,0,0,.16-.81,2.23,2.23,0,0,0-.61-3.19,3.47,3.47,0,0,0-4.82,1.06c-1.45,2.07.2,4.08,1.08,5.88a35,35,0,0,0,3.68,5.43l-.65-.5c-.74-.58-8.39-7.17-7.74-8a3.38,3.38,0,0,0-1.65-5.1,3.91,3.91,0,0,0-.89-.18c-2.66,0-5,3.33-2.79,5.54,1,1,1.66,2.83,2.49,4a27.94,27.94,0,0,0,5.17,5,56.47,56.47,0,0,0,10.57,6.58q-2.9,6-5.78,12a6.11,6.11,0,0,1-2.56-3c-.62-1.61.13-3.17-.64-4.75a2.06,2.06,0,0,0-2.74-1c-2.94,1.65-2,5.92-.56,8.38a5.7,5.7,0,0,0,3.92,3,3.91,3.91,0,0,0,1.33,0c-.12.26-.25.53-.38.79-3.31-.33-7.58-1.19-9.84-3.73-1.56-1.75-2.4-4.15-3.57-6.16-1.73-3-7-2.6-5.68,1.48a2.35,2.35,0,0,0,1.15,1.33c.41.63.77,1.31,1.13,2A26.24,26.24,0,0,0,369,47.42c3.06,3.23,8,3.5,12,2.27-3.12,6.31-6.32,12.58-9.8,18.74-2.8,5-5.69,10-8.53,14.94a3.14,3.14,0,0,0-4.55.32l0,0c-2.44,4.5-5.72,8.9-7.25,13.85a13.57,13.57,0,0,0-1.33-.91c2.55-6,5.19-12,7.36-18.15,1.25-3.54-4.08-5.36-5.47-1.91-.39.6-.77,1.19-1.17,1.78a2.12,2.12,0,0,0-.21,2,87.28,87.28,0,0,0-3.82,12.15c-.23-3.21-.8-6.51-.9-8.93q-.44-10.34-.42-20.68l.36-.3c1.93,3.41,10,3.83,12.86,3.59,2.45-.2,5.22-.85,6.85-2.84,2.12-2.59.2-5.9-2.88-6.09A2,2,0,0,0,360,59.06s0,.06,0,.1a2.12,2.12,0,0,0-.09.27,13.65,13.65,0,0,1-4.61,1c-2.65.28-5.17-.26-7.71-.46.12-.18.24-.37.35-.56,4.94,1.21,9.37-5.62,11.24-9.57,1.53-3.25-4.06-5.35-5.35-1.87a6.18,6.18,0,0,1-1.15,1.81,1.74,1.74,0,0,0-.24,1.88c-1.42,2.8-3.65,5.27-6.82,5.62-.44,0-.46.61-.18.84A6.48,6.48,0,0,0,347,59a9.57,9.57,0,0,1-1.24.45,1.77,1.77,0,0,0-.8-.72c.13-12.19,0-28.27,6.55-39.41,0,0,.05-.05.06-.09a9.7,9.7,0,0,0,7.7-.22,12.57,12.57,0,0,0,3.86-2.85c.6-.6,1.12-1.26,1.66-1.92.29-.34.57-.7.84-1.06,0,0,0,0,0-.05a11.43,11.43,0,0,0,1.86-2l-.15,0c1.53-2.39,0-6.28-3.41-5.43-3.12.78-3.85,3.33-4.88,6.06a2.4,2.4,0,0,0,.24,2.24,11.67,11.67,0,0,1-1.6,1.54,8.36,8.36,0,0,1-4.85,1.65l.05-.06.17-.29c.12-.17.24-.36.38-.53a.47.47,0,0,0,.08-.2c.53-.93,1-1.88,1.47-2.86s1-1.26,1.61-2.41a5.3,5.3,0,0,0,.69-3.61c-.69-3.12-5.16-3.34-6.18-.68a4.5,4.5,0,0,0-.71,1.89c-.18,1.46.06,2.12-.11,3.46a20.15,20.15,0,0,0-.12,3.85c-.22.08-.44.14-.66.2a26.41,26.41,0,0,1-5.76-7.08,12.5,12.5,0,0,1-1.22-3.64,8.87,8.87,0,0,0-.13-1.3c0-.18-.05-.31-.06-.43A2.91,2.91,0,0,0,340.43.22c-2.33-.76-4.21.53-5.16,2.62-1,2.28.67,4.92,2.16,6.54,2.95,3.17,6.07,5.81,10,7.16a19.34,19.34,0,0,1-18.15-5.1,6.58,6.58,0,0,0-.9-1.77,3.9,3.9,0,0,0-6.16.31c-.1.17-.19.34-.28.51a4,4,0,0,0,1,5.41c6.8,4.54,19.24,8.06,26.7,2.9-7.26,8.76-7.24,25.08-7.82,35.23-.07,1-.09,2-.14,3.06A13,13,0,0,1,338,52.65c-1.39-2.65-1.57-5.89-3.88-7.9a2.39,2.39,0,0,0-2.61-.16c3.21-3.74,5.43-8.81.34-11.58-1.45-.78-3.5-.17-3.58,1.72s.63,3.63-.24,5.29c-1.26,2.41-3.69,4.15-5.82,5.71a53.19,53.19,0,0,1-6.47,3.91,23.64,23.64,0,0,0,3.05-3.74c1.74-2.64,2.38-7.35-1.78-7.93-1.37-.2-2.13,1.16-2,2.32.23,3.28-3.37,7.42-5.71,10.46-1.62-6.81-3.34-13.66-7.28-19.09a1.2,1.2,0,0,0,1.2,0c7.57-4.42,13.08-9.85,15.58-18.43,1.14-3.9-3.95-6.65-6.41-3.26a28.24,28.24,0,0,0-2.51,4.7,2.25,2.25,0,0,0,1.57,3.16c-1,3.49-3.58,6.24-6.47,8.73.45-1.25.92-2.49,1.37-3.75.69-2,.83-4,2-5.79,1.73-2.6-.49-6.67-3.8-5.82l-.54.14a4,4,0,0,0-3,2.6,25.07,25.07,0,0,1-.59,2.89,3.32,3.32,0,0,0,2.36,4.12c-.12.75-.28,1.47-.33,2-.22,2-.4,4.06-.51,6.1l-.28.21a1.29,1.29,0,0,0-.45,1.36c-.07-.09-.13-.18-.21-.27a.33.33,0,0,0-.45-.09.94.94,0,0,0-.44,0c-1.4-1.49-2.71-3.19-4-4.62-.84-.92-1.7-1.82-2.53-2.74a3.74,3.74,0,0,0-.31-1.12,4.37,4.37,0,0,0-1.7-2c-3.15-2.12-6.74,1.27-5.37,4.59a4.24,4.24,0,0,0,3.56,2.64c-.72,0,.36.45.66.7.75.6,1.52,1.16,2.32,1.69a36.1,36.1,0,0,0,5.79,3l-.12.19a35.69,35.69,0,0,1-9.28-1.64,38.67,38.67,0,0,1-4-1.47,8.87,8.87,0,0,1-1.94-1.05c-.68-.44-1.1-1.75-1-.32-.12-2.74-2.62-5-5.4-3.65-3.21,1.55-2.42,5.6.4,7,6.25,3,13,4.86,19.73,3.27-3.32,4-8.17,7.16-13.25,5.76-6.59-1.82-7,9-.56,7.84,3.83-.65,7.9-3.09,11-5.36a20.2,20.2,0,0,0,7-9.51l.15.06c1.89,5.8,3.27,11.7,4.68,17.6a40.76,40.76,0,0,1-4.42-1.1c-1.71-.53-3.48-1.93-5.32-1.4a1.93,1.93,0,0,0-1.46,2.17c.23,2.58,3.29,2.93,5.3,3.26a18.22,18.22,0,0,0,6.58-.1c0,.11.05.22.08.34-4,3-9.58,6.08-12.87,2.2-2.57-3-6.82,1.42-3.7,4.09,5.2,4.45,12.62.82,17.16-3.94.91,3.56,1.88,7.11,3.07,10.61,3.76,11,12.58,20.15,20.05,29.35q-.51-.26-1-.48c-2.58-1.2-6.19-3.26-9-2.21A2.62,2.62,0,0,0,319,97.29a4.37,4.37,0,0,0,.45.59c-6.5-2.66-12.92-5.53-19.3-8.53a163.38,163.38,0,0,0-15.87-6.1.28.28,0,0,0,0-.09c3.74-3.3,5.86-8.12,6.83-13,1-5.28-4.28-11.51-9.72-8-1.51,1-2,3.85.25,4.4,1,.25,3.59-.18,4.2.86.87,1.45.78,3.38.63,5a25,25,0,0,1-2,7.3c0-3.59-.79-7.24-3.24-9.88s-6.47.94-4.11,3.5c2.59,2.79,4.35,5.52,4.92,9.14l-.16,0a1.45,1.45,0,0,0-.35-.12C274.72,79.88,268,77.24,262,73.09h0a20.8,20.8,0,0,0,6.61-9.94,20,20,0,0,0,.92-7.64c-.24-3-1.93-5.57-2.25-8.48-.39-3.59-6.2-4-7.1-.51-.6,2.32-1,4.17-.36,6.51a2.22,2.22,0,0,0,3.55,1.24,7.26,7.26,0,0,0,.88-.73c.9,2.95.12,7.64-.36,9.35a23.09,23.09,0,0,1-3.17,6.41,50.11,50.11,0,0,0-2.5-9.74c1-2.37-.09-5.37-3.17-5.54C251.24,53.8,249.4,58.16,251,61.24Zm63.74,76.93c-1.39,3.55-2.63,7.21-3.75,10.93a7.78,7.78,0,0,0-4.68-3.45,14.75,14.75,0,0,0-6.42-5.62c-2.55-1.08-6.35-1.86-9.11-.72a18.78,18.78,0,0,0,1.11-9c2.34-.9,4.68-1.75,6.94-2.59,7.15-2.65,14.48-5,21.64-7.82-.72.83-1.44,1.64-2.16,2.39a3.12,3.12,0,0,0,1.11,5.31A110.23,110.23,0,0,0,314.78,138.17Zm45.45-42.58c6.07-6.3,14.25-11.26,21-15.43,1-.64,2.11-1.24,3.16-1.86-.54,3.38,1.39,6.08,4.12,8.53,2.92,2.62,8.1,5.8,11.88,3.33,2.41-1.58.56-5-1.73-5.27a12.71,12.71,0,0,1-6.3-2.38,29.67,29.67,0,0,1-3.57-3,29.94,29.94,0,0,0,6.74,1.89c1.66.32,4.28.63,5.64-.67s1.95-3.46.42-4.94a2.39,2.39,0,0,0-3.7.3c-.26.06-.52.1-.79.14a17.28,17.28,0,0,1-4-.1c-1.33-.12-2.72-.28-4.1-.51a254.48,254.48,0,0,1,25.38-12.55c2,5.8,9.58,11.29,16.33,12.58-4,8.13-2.25,23.15.1,29.49a1,1,0,0,0-.74-.2c-4.57-2.68-10-4-15.05-5.25q-3.18-.8-6.41-1.41a13.39,13.39,0,0,1,3.56-3.64c1.4-1,4.47-2.58,6.27-2.07,4.76,1.37,5-6.51.4-5.59a17.43,17.43,0,0,0-10.16,5.9c-.14-2.24-.12-4.42,1.27-6.53A22.48,22.48,0,0,1,414,81.58a2.71,2.71,0,0,0,1.62-.89c1.76-2,.89-5.35-2-5.54s-4.62,3.3-5.89,5.27a18.83,18.83,0,0,0-3.36,8.14c-.27,2.42.16,6.71,2,8.85,0,.17-.09.33-.12.5a157.61,157.61,0,0,0-19-2.1c-8.47-.45-17.24-.24-25.5,1.84-1,.26-2.09.57-3.21,1C359.15,97.6,359.7,96.59,360.23,95.59Zm-8.36,25.5c1.73,2.35,2.66,5.11,3.83,7.59a2.2,2.2,0,0,0,3.37.71c3.6-2.54,1-7.07-.88-9.88a36,36,0,0,0-4.71-5.92,35.2,35.2,0,0,1,8.65,2.94c5.94,2.67,11.35,6.62,16.41,10.71a15,15,0,0,0-9.76,6.77c-2,3.09-2.39,9.39.3,12.46a9.86,9.86,0,0,0-6.7,4.92c-.7-2.9-1.39-5.78-2.14-8.6A80.89,80.89,0,0,0,354,126.1c-1.19-2.31-2.47-4.53-3.56-6.79C351,119.9,351.42,120.49,351.87,121.09Zm-31.73,42.54a5.32,5.32,0,0,1,1.89-4.3,152.13,152.13,0,0,0-1,30.81.14.14,0,0,0,0,.06,18,18,0,0,0-3.78.94,15.13,15.13,0,0,0-11.45-1.9l-.3-.38A145.93,145.93,0,0,1,311,158a18.52,18.52,0,0,1,2.68-.74,30.21,30.21,0,0,1,4.56-.55,12.64,12.64,0,0,0-3.81,7.27C313.93,168,320.61,168,320.14,163.63Zm2.68-9.85a14.45,14.45,0,0,0-3.92-1.33,20.83,20.83,0,0,0-6.21-.16c.94-3,1.93-6,3-8.88a91.48,91.48,0,0,1,10.73-21.26c.81-1.1,1.64-2.22,2.5-3.31a36.1,36.1,0,0,1,5.24-5.1,1.64,1.64,0,0,1,.22-.14l.66-.4c.31-.16.61-.32.93-.46a4.7,4.7,0,0,0,.51.57c-7.77,9.37-10.35,22.52-12.56,34.12C323.51,149.53,323.16,151.65,322.82,153.78Zm16.41-52.17a5.78,5.78,0,0,1,2.26-1.87,6.58,6.58,0,0,1,2.86-.56,6.22,6.22,0,0,1,2.73.64,5.39,5.39,0,0,1,2.86,2.56,5,5,0,0,1,.22,3.83c0,.11-.1.2-.14.31a6,6,0,0,1-.15.68,6.56,6.56,0,0,1-3.72,3.93c-1.67.69-4,.8-5.48-.49a6.38,6.38,0,0,1-2-2.5,6.77,6.77,0,0,1-.58-3.35A6.07,6.07,0,0,1,339.23,101.61Zm-11.9-53.22a19.6,19.6,0,0,0,3-2.53s0,.09,0,.14c-.87,3.57,1.63,8.29,3.61,11.23a12.33,12.33,0,0,0,2.68,2.87h-.1a14.41,14.41,0,0,1-11.48-9,2.82,2.82,0,0,0-.62-.9C325.41,49.59,326.4,49,327.33,48.39Zm6.48,35.29c-1-3-6.08-1.29-5.25,1.75q.29,1,.66,2.07C323,80.13,316.59,72.91,313,63.72a72.3,72.3,0,0,1-2.83-9.42,24.62,24.62,0,0,0,9.3-1.81,2,2,0,0,0,.06.41c1.64,6.54,7.9,10.79,14.36,11.74a19.17,19.17,0,0,0,7.6-.13c-.09,4.82-.08,9.64,0,14.46a4,4,0,0,0-2.11-1,2.9,2.9,0,0,0-3.22,3.48,2.41,2.41,0,0,0,.21.55,12.93,12.93,0,0,0,.69,1.85c.33.92.81,2.82,1.15,4.1a28.27,28.27,0,0,0,2.77,7.61c-.21.09-.4.2-.59.3A45,45,0,0,1,333.81,83.68Z"/><path class="b" d="M362.92,271.85c-6.27-24.68-15.54-49-17.92-74.48-2.42-25.8,4.38-51.44,3.23-77.26-.22-4.76-7.63-4.78-7.42,0,1.16,25.86-5.06,51.38-3.23,77.26,1.86,26.15,11.78,51.25,18.19,76.45"/><path class="c" d="M19.7,234.9q8.81,0,19.15,7.2A74,74,0,0,1,56.7,259.7q7.9,11.1,9.2,21.2,1.5,11.81-6.8,18.8c-.87.67-1.73,1.3-2.6,1.9a31.64,31.64,0,0,0,5.7.8q6.7.11,9.9-5a1.71,1.71,0,0,1,1.1-.75,1.76,1.76,0,0,1,1.35.25,1.68,1.68,0,0,1,.8,1.1,1.92,1.92,0,0,1-.25,1.4q-4.3,6.8-13,6.6a38.63,38.63,0,0,1-10.6-2.1q-9.49,3.3-20.7.2a35.47,35.47,0,0,1-5.7-1.9,3.93,3.93,0,0,1-.9-.5,6.94,6.94,0,0,1-.1,1.2,1.78,1.78,0,0,1-.7,1.25,1.76,1.76,0,0,1-1.35.35,1.74,1.74,0,0,1-1.2-.7,1.68,1.68,0,0,1-.35-1.3,82,82,0,0,0,.65-9.65q0-5-.3-12.15t-.35-9.9q-.3-19.4-.9-32.3a1.55,1.55,0,0,1-1.2-.55,1.82,1.82,0,0,1-.5-1.25,1.88,1.88,0,0,1,1.8-1.8Zm31.7,65.2a18.47,18.47,0,0,0,5.3-3.2q6.9-5.7,5.6-15.6-1.09-9.1-8.5-19.5a71.39,71.39,0,0,0-14.75-15.1q-8.44-6.4-15.85-7.8.6,12.79.9,31.9,0,2,.35,10.1t.25,12.5q3.11-1.39,8.7.1c1.27.33,2.67.77,4.2,1.3l5.7,2.2q3.5,1.31,4.5,1.8Zm-6.1,1.6q-10.39-4.09-12.8-4.7c-3.93-1-6.47-.77-7.6.7v.1a5,5,0,0,0,1.8,1.1,33,33,0,0,0,5.1,1.8A36,36,0,0,0,45.3,301.7Z"/><path class="c" d="M96.2,267.6a1.47,1.47,0,0,1,1,.9l.2.5a.85.85,0,0,1,.1.4v1.3c0,1.4,0,2.5-.1,3.3q-.3,4.39-.5,6.3l-.2,1.6c0,2.13.07,4.07.2,5.8q1.09,11,6.6,13a4.08,4.08,0,0,0,3.6-.6,9.48,9.48,0,0,0,3.3-3,1.74,1.74,0,0,1,1.15-.75,1.72,1.72,0,0,1,1.35.25,1.74,1.74,0,0,1,.75,1.15,1.72,1.72,0,0,1-.25,1.35,13.27,13.27,0,0,1-4.5,4.1,7.28,7.28,0,0,1-6.6.9q-6.19-2.3-8.3-11.5c-.4,1.27-.83,2.47-1.3,3.6a19.64,19.64,0,0,1-5.2,7.2,8.2,8.2,0,0,1-8.5,1.2q-5.91-2.4-7.7-12.2a50.62,50.62,0,0,1,.4-18.4q1.9-10.2,6.2-15.6a11.32,11.32,0,0,1,5.5-4,8.43,8.43,0,0,1,6.8,1.2Q95.2,258.6,96.2,267.6Zm-3.5,1.3q-.7-8.1-4.3-10.3a5.23,5.23,0,0,0-4-.7,7.38,7.38,0,0,0-3.7,2.7q-3.7,4.8-5.5,14.1a44.49,44.49,0,0,0-.3,17q1.39,7.91,5.5,9.5a4.69,4.69,0,0,0,4.9-.6,16.55,16.55,0,0,0,4.1-5.9,51.16,51.16,0,0,0,3.7-13.1q0-4.39.6-11.3A1.61,1.61,0,0,1,92.7,268.9Z"/><path class="c" d="M109.1,283.8q0-3.71-.1-12.8t-.1-14.1a1.77,1.77,0,0,1,3-1.25,1.75,1.75,0,0,1,.55,1.25q0,5,.1,14.3a44.68,44.68,0,0,1,1.9-4.4,24.91,24.91,0,0,1,5.7-8.1q4-3.6,8.3-2.5,6,1.4,7.7,9.9c.66,3,1,8.3.9,15.9q-.1,11.1.5,14.7.9,5.51,3.6,5.7,6.39.6,10.9-4.8a1.91,1.91,0,0,1,1.25-.7,1.55,1.55,0,0,1,1.3.4,2,2,0,0,1,.65,1.25,1.44,1.44,0,0,1-.4,1.25q-5.7,7-14.1,6.2-5.51-.5-6.8-8.7-.6-3.9-.5-15.4.19-10.5-.8-15-1.3-6.3-5-7.3-2.51-.6-5.1,1.8a23.05,23.05,0,0,0-4.9,7,55.32,55.32,0,0,0-3.25,8.4,51.59,51.59,0,0,0-1.75,7.3v3.2c0,.73,0,2.17,0,4.3s0,3.8,0,5c0,.47,0,1.77-.1,3.9v2.1a.28.28,0,0,0-.1.2,1.87,1.87,0,0,1-.9,1,1.68,1.68,0,0,1-1.6,0,1.89,1.89,0,0,1-.7-.6,3.69,3.69,0,0,0-.2-.5.69.69,0,0,1-.1-.3v-.6c0-.33,0-1.87-.15-4.6s-.15-5.25-.15-7.55A48.22,48.22,0,0,1,109.1,283.8Z"/><path class="c" d="M173.2,262.7a104.75,104.75,0,0,1,.7-10.5c0-.2,0-.63.1-1.3s.13-1.23.2-1.7a34.81,34.81,0,0,1,.8-4.7,16.69,16.69,0,0,1,1.6-4.8,6.33,6.33,0,0,1,3.6-3.4,3.8,3.8,0,0,1,3.3.3,4.77,4.77,0,0,1,1.9,2.4,16.37,16.37,0,0,1,1.1,6.3c.06,1,.08,2.12.05,3.35s-.1,2.28-.2,3.15-.19,1.7-.25,2.5-.1,1.23-.1,1.3a138.2,138.2,0,0,1-4.5,27.8c-.54,1.87-1.07,3.63-1.6,5.3a31.79,31.79,0,0,0,4.3,8.8q2.6,3.5,5.6,3.9,3.49.41,7.9-3.7a1.7,1.7,0,0,1,1.25-.5,1.62,1.62,0,0,1,1.25.55,1.89,1.89,0,0,1,.5,1.3,1.56,1.56,0,0,1-.6,1.25q-5.5,5.2-10.7,4.6-4.5-.5-8.1-5.3a25.22,25.22,0,0,1-3.4-6,43.05,43.05,0,0,1-2.3,4.2q-4.41,6.79-10.2,7.4a10.72,10.72,0,0,1-9-3.1,16.93,16.93,0,0,1-4.4-8.6q-2.31-10.2,1.1-22.6a35.86,35.86,0,0,1,3.8-9.5c1.86-3,3.9-4.8,6.1-5.4q4-1.09,7.5,2.9A20.34,20.34,0,0,1,173.2,262.7Zm.1,9.6q-2.61-7.8-5.5-11-2-2.3-3.9-1.8t-3.9,3.8a30.65,30.65,0,0,0-3.5,8.5q-3.1,11.59-1,20.9a14.14,14.14,0,0,0,3.4,6.9,7.09,7.09,0,0,0,6.1,2q4.09-.41,7.6-5.7a39.84,39.84,0,0,0,3.5-7.3,51.65,51.65,0,0,1-2-8.8q-.51-3.71-.7-7.3A.28.28,0,0,1,173.3,272.3Zm4.8,9.8a137.52,137.52,0,0,0,4.3-26.7c0-.13,0-.62.15-1.45s.18-1.65.25-2.45.11-1.77.15-2.9,0-2.2,0-3.2a14.57,14.57,0,0,0-.8-5c-.14-.4-.3-.63-.5-.7,0-.07-.14-.07-.4,0a3.34,3.34,0,0,0-1.4,1.6,14.44,14.44,0,0,0-1.3,3.9c-.27,1.27-.5,2.73-.7,4.4-.07.47-.14,1.05-.2,1.75s-.1,1.12-.1,1.25a99.84,99.84,0,0,0,.2,26.8Z"/><path class="c" d="M202.1,297.6a14.18,14.18,0,0,0,8.4,3.9,18.37,18.37,0,0,0,7.8-.7A17.13,17.13,0,0,0,225,297a1.7,1.7,0,0,1,1.25-.5,1.62,1.62,0,0,1,1.25.55,1.89,1.89,0,0,1,.5,1.3,1.56,1.56,0,0,1-.6,1.25,19.15,19.15,0,0,1-8,4.6,22.65,22.65,0,0,1-9.4.8,18.7,18.7,0,0,1-8.8-3.4,15.92,15.92,0,0,1-5.6-7.8A39.84,39.84,0,0,1,194,278.25a41.32,41.32,0,0,1,3.85-15.05,20.73,20.73,0,0,1,4.2-6,7.65,7.65,0,0,1,5.1-2.4c2.06,0,3.6,1.1,4.6,3.3a18.58,18.58,0,0,1,.9,8Q211.7,279.71,202.1,297.6Zm-2.4-3.3q8.49-16,9.3-28.4.3-4.31-.6-6.3c-.4-.8-.84-1.2-1.3-1.2a4.54,4.54,0,0,0-2.7,1.4,16.38,16.38,0,0,0-3.4,5,38,38,0,0,0-3.5,13.75A35.46,35.46,0,0,0,199,292.6,12.34,12.34,0,0,0,199.7,294.3Z"/><path class="c" d="M228.3,294.8q2.49,5.51,6.1,7.4a5.4,5.4,0,0,0,4.5.4c1.86-.67,3.7-2.3,5.5-4.9a1.85,1.85,0,0,1,2.5-.5,1.74,1.74,0,0,1,.75,1.15,1.76,1.76,0,0,1-.25,1.35q-3.3,4.91-7.2,6.3a8.78,8.78,0,0,1-7.5-.6,15,15,0,0,1-5.5-5.2,27.39,27.39,0,0,1-3.6-7.9,85.35,85.35,0,0,1-3-26.5,84.43,84.43,0,0,1,4.3-26.3,14.19,14.19,0,0,1,1.5-3.3,3.82,3.82,0,0,1,2.6-1.7,4,4,0,0,1,3.4,1.6,10.27,10.27,0,0,1,1.6,4.6,59.38,59.38,0,0,1,.3,6.6q0,7-1.1,17.7-1,9.11-2.4,17.8a91.81,91.81,0,0,1-2.4,11.7A.45.45,0,0,1,228.3,294.8Zm1.1-56.6a.09.09,0,0,1-.1.1,11.42,11.42,0,0,0-1,2.4A79.31,79.31,0,0,0,224.25,264a90.37,90.37,0,0,0,1.95,24.15q2-10.39,3.4-23.5a173.22,173.22,0,0,0,1.1-17.3,49.27,49.27,0,0,0-.3-6.1,5.53,5.53,0,0,0-.8-2.7A1.72,1.72,0,0,0,229.4,238.2Z"/><path class="c" d="M249,257.3c-.07.87-.25,2.83-.55,5.9s-.54,5.83-.7,8.3-.32,5.6-.45,9.4a52.88,52.88,0,0,0,.3,9.2q.79,9.11,4,11.3,3.6,2.4,11.5-4.4a2,2,0,0,1,1.45-.4,2,2,0,0,1,1.25.65,1.58,1.58,0,0,1,.4,1.3,2.14,2.14,0,0,1-.6,1.25q-10.2,8.51-16.1,4.5-4.6-3.1-5.6-13.9a55.82,55.82,0,0,1-.3-9.45q.19-5.85.45-9.7c.16-2.57.4-5.38.7-8.45s.48-5,.55-5.7a1.43,1.43,0,0,1,.65-1.25,2.4,2.4,0,0,1,1.4-.45,1.43,1.43,0,0,1,1.2.6A2.12,2.12,0,0,1,249,257.3Zm-.15-14.75a1.7,1.7,0,0,1,0,2.5,1.73,1.73,0,0,1-1.25.55,1.8,1.8,0,0,1,0-3.6A1.73,1.73,0,0,1,248.85,242.55Z"/><path class="c" d="M275.9,254.8a1.8,1.8,0,0,1,.6.1,1.76,1.76,0,0,1,1.3.1q9.49,4.39,12.4,17.1a28.91,28.91,0,0,0,8.3-3.6,1.72,1.72,0,0,1,1.35-.25A1.74,1.74,0,0,1,301,269a1.76,1.76,0,0,1,.25,1.35,1.74,1.74,0,0,1-.75,1.15,33.19,33.19,0,0,1-9.7,4.2,36.56,36.56,0,0,1-.1,10.4q-1.31,9.7-6.6,14.9-6.11,6-14.6,2.8-6.71-2.6-9.4-10.9a34.92,34.92,0,0,1-1.1-16.2,36.83,36.83,0,0,1,5.2-15q4.59-7,11.1-7A1.8,1.8,0,0,1,275.9,254.8Zm11.4,21.6q-8.31,1.2-13.6-2a12.38,12.38,0,0,1-4.7-4.6,10.74,10.74,0,0,1-1.5-5.8,5.15,5.15,0,0,0,.1-.9l-.4.6a31.7,31.7,0,0,0-4.7,13.5,32.52,32.52,0,0,0,1,14.6q2.19,6.7,7.2,8.6,6.39,2.4,10.9-2t5.6-12.8A38.79,38.79,0,0,0,287.3,276.4Zm-.6-3.5q-2.51-10.8-10.2-14.6-5.21,1.5-5.4,5.9a6.75,6.75,0,0,0,1,3.85,9.93,9.93,0,0,0,3.35,3.35Q279.7,273.9,286.7,272.9Z"/><path class="c" d="M299.7,283.8q0-3.71-.1-12.8t-.1-14.1a1.77,1.77,0,0,1,3.05-1.25,1.75,1.75,0,0,1,.55,1.25q0,5,.1,14.3a44.68,44.68,0,0,1,1.9-4.4,24.91,24.91,0,0,1,5.7-8.1q4-3.6,8.3-2.5,6,1.4,7.7,9.9,1,4.5.9,15.9-.1,11.1.5,14.7.9,5.51,3.6,5.7,6.39.6,10.9-4.8a1.91,1.91,0,0,1,1.25-.7,1.55,1.55,0,0,1,1.3.4,2,2,0,0,1,.65,1.25,1.44,1.44,0,0,1-.4,1.25q-5.7,7-14.1,6.2-5.5-.5-6.8-8.7-.6-3.9-.5-15.4.19-10.5-.8-15-1.31-6.3-5-7.3-2.51-.6-5.1,1.8a23.05,23.05,0,0,0-4.9,7,55.32,55.32,0,0,0-3.25,8.4,51.59,51.59,0,0,0-1.75,7.3v3.2c0,.73,0,2.17.05,4.3s0,3.8,0,5c0,.47,0,1.77-.1,3.9v2.1a.28.28,0,0,0-.1.2,1.91,1.91,0,0,1-.9,1,1.68,1.68,0,0,1-1.6,0,1.89,1.89,0,0,1-.7-.6c-.07-.2-.14-.37-.2-.5a.69.69,0,0,1-.1-.3v-.6c0-.33-.05-1.87-.15-4.6s-.15-5.25-.15-7.55A48.22,48.22,0,0,1,299.7,283.8Z"/><path class="c" d="M377.39,234.9q8.81,0,19.15,7.2a74,74,0,0,1,17.85,17.6q7.91,11.1,9.2,21.2,1.5,11.81-6.8,18.8c-.86.67-1.73,1.3-2.6,1.9a31.64,31.64,0,0,0,5.7.8q6.71.11,9.9-5a1.73,1.73,0,0,1,1.1-.75,1.76,1.76,0,0,1,1.35.25,1.64,1.64,0,0,1,.8,1.1,1.92,1.92,0,0,1-.25,1.4q-4.29,6.8-13,6.6a38.7,38.7,0,0,1-10.6-2.1q-9.49,3.3-20.7.2a35.47,35.47,0,0,1-5.7-1.9,3.93,3.93,0,0,1-.9-.5,6.94,6.94,0,0,1-.1,1.2,1.82,1.82,0,0,1-3.25.9,1.72,1.72,0,0,1-.35-1.3,82,82,0,0,0,.65-9.65q.06-5-.3-12.15t-.35-9.9q-.3-19.4-.9-32.3a1.57,1.57,0,0,1-1.2-.55,1.82,1.82,0,0,1-.5-1.25,1.75,1.75,0,0,1,.55-1.25A1.73,1.73,0,0,1,377.39,234.9Zm31.7,65.2a18.47,18.47,0,0,0,5.3-3.2q6.9-5.7,5.6-15.6-1.1-9.1-8.5-19.5a71.15,71.15,0,0,0-14.75-15.1q-8.44-6.4-15.85-7.8.6,12.79.9,31.9,0,2,.35,10.1t.25,12.5q3.11-1.39,8.7.1c1.27.33,2.67.77,4.2,1.3L401,297q3.51,1.31,4.5,1.8Zm-6.1,1.6q-10.39-4.09-12.8-4.7-5.9-1.5-7.6.7v.1a5,5,0,0,0,1.8,1.1,33,33,0,0,0,5.1,1.8A36,36,0,0,0,403,301.7Z"/><path class="c" d="M436.79,297.6a14.23,14.23,0,0,0,8.4,3.9,18.37,18.37,0,0,0,7.8-.7,17.06,17.06,0,0,0,6.7-3.8,1.72,1.72,0,0,1,1.25-.5,1.6,1.6,0,0,1,1.25.55,1.84,1.84,0,0,1,.5,1.3,1.56,1.56,0,0,1-.6,1.25,19.09,19.09,0,0,1-8,4.6,22.62,22.62,0,0,1-9.4.8,18.74,18.74,0,0,1-8.8-3.4,16,16,0,0,1-5.6-7.8,40.22,40.22,0,0,1-1.65-15.55,41.73,41.73,0,0,1,3.85-15.05,20.73,20.73,0,0,1,4.2-6,7.69,7.69,0,0,1,5.1-2.4q3.1,0,4.6,3.3a18.58,18.58,0,0,1,.9,8Q446.39,279.71,436.79,297.6Zm-2.4-3.3q8.5-16,9.3-28.4.3-4.31-.6-6.3c-.4-.8-.83-1.2-1.3-1.2a4.59,4.59,0,0,0-2.7,1.4,16.56,16.56,0,0,0-3.4,5,38.16,38.16,0,0,0-3.5,13.75,35.46,35.46,0,0,0,1.5,14.05A13.73,13.73,0,0,0,434.39,294.3Z"/><path class="c" d="M456.59,297.9a20.74,20.74,0,0,0,2.5-5c.87-2.27,1.83-5.17,2.9-8.7l1.7-6q.9-3.19,1.7-6.35c.53-2.1.9-3.48,1.1-4.15.33-1.33.93-3.27,1.8-5.8.47-1.4.87-2.57,1.2-3.5.2-.53.37-.93.5-1.2a1.71,1.71,0,0,1,.25-.6,1.1,1.1,0,0,1,.35-.3,1.62,1.62,0,0,1,1-.6,2.78,2.78,0,0,1,2.9,1.6,11.62,11.62,0,0,1,1.3,2.6,28.29,28.29,0,0,1,1.15,3,30.42,30.42,0,0,0,1.25,3.15q.3.9,3.6,7.7a70.45,70.45,0,0,1,4.2,9.7q4.39,12.11-.4,18.3,8.7,2.3,14.3-3.9a1.53,1.53,0,0,1,1.15-.55,1.81,1.81,0,0,1,1.3.4,1.6,1.6,0,0,1,.6,1.2,1.88,1.88,0,0,1-.45,1.35q-7.61,8.7-19.9,4.3a11.4,11.4,0,0,1-5.1,1.8,15.16,15.16,0,0,1-5.25-.3,18.51,18.51,0,0,1-4.75-1.9,17.12,17.12,0,0,1-6.1-5.6c-.13-.27-.27-.57-.4-.9a10.47,10.47,0,0,1-1.8,2.7,1.5,1.5,0,0,1-1.2.6,2,2,0,0,1-1.3-.5,1.5,1.5,0,0,1-.6-1.2A2,2,0,0,1,456.59,297.9Zm7.3-4.2c-.33.73-.13,1.7.6,2.9a12.19,12.19,0,0,0,4.8,4.3q4.69,2.7,8.8,1.7-2.29-1.2-4.8-2.8-.3-.19-2.4-1.8c-1.4-1.07-2.57-1.9-3.5-2.5a15.24,15.24,0,0,0-3.2-1.7A.69.69,0,0,0,463.89,293.7Zm8.5-32.8-.7,2.1q-1.2,3.71-1.8,5.7c-.13.67-.47,2-1,4.1l-1.8,6.4-1.7,6.1-1.5,4.8a4.26,4.26,0,0,1,1.5.3,16.42,16.42,0,0,1,4,2.1c1,.67,2.23,1.53,3.7,2.6s2.07,1.63,2.2,1.7a45.27,45.27,0,0,0,6.7,3.6l.3-.3q4.2-4.61.4-15.5-1.4-3.8-4.1-9.4l-3.8-7.8c-.27-.67-.67-1.73-1.2-3.2l-1.1-3Z"/><path class="c" d="M504.69,257.3c-.07.87-.25,2.83-.55,5.9s-.53,5.83-.7,8.3-.32,5.6-.45,9.4a55,55,0,0,0,.3,9.2q.79,9.11,4,11.3,3.6,2.4,11.5-4.4a2,2,0,0,1,2.7.25,1.55,1.55,0,0,1,.4,1.3,2.14,2.14,0,0,1-.6,1.25q-10.2,8.51-16.1,4.5-4.6-3.1-5.6-13.9a58,58,0,0,1-.3-9.45q.19-5.85.45-9.7c.17-2.57.4-5.38.7-8.45s.48-5,.55-5.7a1.45,1.45,0,0,1,.65-1.25,2.4,2.4,0,0,1,1.4-.45,1.43,1.43,0,0,1,1.2.6A2.12,2.12,0,0,1,504.69,257.3Zm-.15-14.75a1.7,1.7,0,1,1-1.25-.55A1.71,1.71,0,0,1,504.54,242.55Z"/><path class="c" d="M540.39,290.4a37.6,37.6,0,0,1-3.6,7.1,16.23,16.23,0,0,1-6.5,6.2q-4.39,2-8.9-1.1-6.3-4.31-6.2-15.4a45.5,45.5,0,0,1,4.5-18.9q4.6-9.9,10.5-12.1a7.66,7.66,0,0,1,7,.6q3.19,2,5.7,7.2a1.72,1.72,0,0,1-.4,2.2,2.13,2.13,0,0,1,1,.7,3.69,3.69,0,0,1,.2.5.28.28,0,0,1,.1.2v.5q0,.9.1,6.95c.07,4,.12,7.57.15,10.6s0,7.05-.25,12.05c0,1,0,2-.1,2.9q3.1-1.39,10.2-3.8a2.06,2.06,0,0,1,1.4.1,1.47,1.47,0,0,1,.9,1,2.06,2.06,0,0,1-.1,1.4,1.47,1.47,0,0,1-1,.9q-8.21,2.81-11.7,4.4a74.56,74.56,0,0,1-1.4,9.9,24.79,24.79,0,0,1-2.1,5.9,6.51,6.51,0,0,1-4,3.5,6.62,6.62,0,0,1-5-.7,6.28,6.28,0,0,1-2.5-3.7,11.39,11.39,0,0,1,.9-8.2q2.51-4.91,10.7-9l.2-4.7Q540.39,294.19,540.39,290.4Zm-.7-24.8q-2-4.31-4.4-5.7a4.06,4.06,0,0,0-3.8-.3q-4.61,1.69-8.6,10.2a42.54,42.54,0,0,0-4.1,17.4q-.1,9.19,4.6,12.4c1.93,1.33,3.77,1.6,5.5.8s3.3-2.33,4.9-4.8a39,39,0,0,0,3.65-7.5,40.84,40.84,0,0,0,2-7.2,18.47,18.47,0,0,0,.4-2.95c.07-1.1.1-2.37.1-3.8s0-2.55.1-3.35c0-.27,0-.93.1-2v-1.1a.28.28,0,0,1,.1-.2.4.4,0,0,1,.1-.3,1.5,1.5,0,0,1,.4-.7A1.51,1.51,0,0,1,539.69,265.6Zm-.1,40.9q-5.4,3.11-7.1,6.4a7.78,7.78,0,0,0-.6,5.7,2.76,2.76,0,0,0,1,1.6,2.7,2.7,0,0,0,2.2.1c.53-.07,1.07-.6,1.6-1.6a18.86,18.86,0,0,0,1.7-5A65.51,65.51,0,0,0,539.59,306.5Z"/><path class="c" d="M553.09,283.8q0-3.71-.1-12.8t-.1-14.1a1.77,1.77,0,0,1,3.05-1.25,1.75,1.75,0,0,1,.55,1.25q0,5,.1,14.3a44.68,44.68,0,0,1,1.9-4.4,24.91,24.91,0,0,1,5.7-8.1q4-3.6,8.3-2.5,6,1.4,7.7,9.9,1,4.5.9,15.9-.11,11.1.5,14.7.9,5.51,3.6,5.7,6.4.6,10.9-4.8a1.91,1.91,0,0,1,1.25-.7,1.55,1.55,0,0,1,1.3.4,2,2,0,0,1,.65,1.25,1.44,1.44,0,0,1-.4,1.25q-5.7,7-14.1,6.2-5.5-.5-6.8-8.7-.6-3.9-.5-15.4.19-10.5-.8-15-1.31-6.3-5-7.3-2.51-.6-5.1,1.8a23.05,23.05,0,0,0-4.9,7,55.32,55.32,0,0,0-3.25,8.4,53,53,0,0,0-1.75,7.3v3.2c0,.73,0,2.17,0,4.3s0,3.8,0,5c0,.47,0,1.77-.1,3.9v2.1a.28.28,0,0,0-.1.2,1.87,1.87,0,0,1-.9,1,1.68,1.68,0,0,1-1.6,0,1.89,1.89,0,0,1-.7-.6c-.07-.2-.14-.37-.2-.5a.69.69,0,0,1-.1-.3v-.6c0-.33-.05-1.87-.15-4.6s-.15-5.25-.15-7.55A48.22,48.22,0,0,1,553.09,283.8Z"/><path class="c" d="M593.59,297.9a21.13,21.13,0,0,0,2.5-5q1.29-3.4,2.9-8.7l1.7-6c.6-2.13,1.16-4.25,1.7-6.35s.9-3.48,1.1-4.15c.33-1.33.93-3.27,1.8-5.8.46-1.4.86-2.57,1.2-3.5a12.34,12.34,0,0,1,.5-1.2,1.54,1.54,0,0,1,.25-.6,1,1,0,0,1,.35-.3,1.59,1.59,0,0,1,1-.6,2.78,2.78,0,0,1,2.9,1.6,11.62,11.62,0,0,1,1.3,2.6,30.82,30.82,0,0,1,1.15,3,28.28,28.28,0,0,0,1.25,3.15q.3.9,3.6,7.7a70.45,70.45,0,0,1,4.2,9.7q4.39,12.11-.4,18.3,8.7,2.3,14.3-3.9a1.51,1.51,0,0,1,1.15-.55,1.81,1.81,0,0,1,1.3.4,1.67,1.67,0,0,1,.6,1.2,1.88,1.88,0,0,1-.45,1.35q-7.61,8.7-19.9,4.3a11.49,11.49,0,0,1-5.1,1.8,15.15,15.15,0,0,1-5.25-.3,18.37,18.37,0,0,1-4.75-1.9,17.12,17.12,0,0,1-6.1-5.6,9.64,9.64,0,0,1-.4-.9,10.47,10.47,0,0,1-1.8,2.7,1.53,1.53,0,0,1-1.2.6,2,2,0,0,1-1.3-.5,1.5,1.5,0,0,1-.6-1.2A2,2,0,0,1,593.59,297.9Zm7.3-4.2c-.34.73-.14,1.7.6,2.9a12.19,12.19,0,0,0,4.8,4.3q4.69,2.7,8.8,1.7-2.31-1.2-4.8-2.8-.3-.19-2.4-1.8c-1.4-1.07-2.57-1.9-3.5-2.5a15.49,15.49,0,0,0-3.2-1.7A.78.78,0,0,0,600.89,293.7Zm8.5-32.8-.7,2.1q-1.2,3.71-1.8,5.7c-.14.67-.47,2-1,4.1l-1.8,6.4-1.7,6.1-1.5,4.8a4.34,4.34,0,0,1,1.5.3,16.6,16.6,0,0,1,4,2.1c1,.67,2.23,1.53,3.7,2.6s2.06,1.63,2.2,1.7a45.27,45.27,0,0,0,6.7,3.6l.3-.3q4.2-4.61.4-15.5-1.41-3.8-4.1-9.4l-3.8-7.8c-.27-.67-.67-1.73-1.2-3.2l-1.1-3Z"/></svg>